<?xml version="1.0" standalone="no"?>
<!DOCTYPE svg PUBLIC "-//W3C//DTD SVG 20010904//EN"
 "http://www.w3.org/TR/2001/REC-SVG-20010904/DTD/svg10.dtd">
<svg version="1.0" xmlns="http://www.w3.org/2000/svg"
 width="270.000000pt" height="280.000000pt" viewBox="0 0 270.000000 280.000000"
 preserveAspectRatio="xMidYMid meet">

<g transform="translate(0.000000,280.000000) scale(0.100000,-0.100000)"
fill="#000000" stroke="none">
<path d="M375 2711 c-186 -7 -210 -13 -259 -71 -47 -56 -51 -91 -51 -433 l0
-317 720 -718 c396 -395 791 -786 878 -870 157 -151 158 -152 204 -152 82 0
251 105 391 243 185 181 301 399 364 678 30 135 32 403 4 543 -32 166 -95 335
-173 468 -120 205 -321 393 -529 496 -177 89 -298 119 -524 132 -163 10 -735
10 -1025 1z"/>
<path d="M124 1252 c-12 -2 -30 -12 -40 -24 -18 -19 -19 -45 -17 -490 0 -259
4 -491 8 -515 4 -31 17 -57 42 -84 71 -78 37 -74 611 -74 497 0 514 1 528 19
24 34 17 81 -18 123 -47 55 -929 940 -988 991 -52 45 -89 60 -126 54z"/>
</g>
</svg>
